<svg width="73" height="73" viewBox="0 0 73 73" fill="none" xmlns="http://www.w3.org/2000/svg">
<circle cx="36.5" cy="36.5" r="35" fill="#1BAB8E" stroke="black" stroke-width="3"/>
<path d="M58.0574 57.3977H53.7898V31.3082C53.7898 30.9437 53.4944 30.6482 53.1298 30.6482H46.0905C45.726 30.6482 45.4306 30.9437 45.4306 31.3082V57.3977H40.4151V39.0514C40.4151 38.687 40.1197 38.3914 39.7551 38.3914H32.7158C32.3513 38.3914 32.0559 38.687 32.0559 39.0514V57.3977H27.0404V42.5711C27.0404 42.2066 26.745 41.9111 26.3804 41.9111H19.3411C18.9766 41.9111 18.6812 42.2066 18.6812 42.5711V57.3976H14.4136C14.049 57.3976 13.7536 57.6931 13.7536 58.0576C13.7536 58.422 14.049 58.7175 14.4136 58.7175H58.0574C58.4219 58.7175 58.7174 58.422 58.7174 58.0576C58.7173 57.6931 58.4219 57.3977 58.0574 57.3977ZM25.7205 57.3977H20.001V43.231H25.7205V57.3977ZM39.0953 57.3977H33.3758V39.7114H39.0953V57.3977ZM52.47 57.3977H46.7505V31.9681H52.47V57.3977Z" fill="white"/>
<path d="M56.6104 14.2713C56.1656 13.8787 55.5736 13.6958 54.9852 13.7697L49.3538 14.4737C48.2358 14.6134 47.4186 15.6628 47.5585 16.7818C47.6998 17.9127 48.7344 18.7186 49.8667 18.5772L50.3262 18.5199C43.4144 26.534 35.1973 30.6757 29.3908 32.7572C22.1509 35.3528 16.5158 35.5748 16.4609 35.5766C15.3225 35.6122 14.4242 36.5674 14.4587 37.706C14.4927 38.8304 15.4002 39.7112 16.5247 39.7112C16.5456 39.7112 16.5666 39.7109 16.5881 39.7102C16.8387 39.7027 22.8123 39.4917 30.6822 36.6874C35.1064 35.1109 39.2694 33.0181 43.0554 30.4672C43.3577 30.2636 43.4376 29.8533 43.2339 29.5511C43.0303 29.2487 42.6202 29.1689 42.3178 29.3726C38.6234 31.8619 34.5596 33.9047 30.2392 35.4442C22.5626 38.1795 16.79 38.3836 16.5486 38.3909L16.5247 38.3912C16.1183 38.3912 15.7902 38.0727 15.7779 37.666C15.7654 37.2541 16.0904 36.9087 16.5024 36.8958C16.56 36.8939 22.3559 36.6812 29.8363 33.9996C36.103 31.7531 45.1075 27.166 52.417 18.071C52.781 17.6182 52.3962 16.9307 51.8209 17.0028L49.7034 17.2675C49.3363 17.3129 48.9798 17.0724 48.8866 16.7139C48.7745 16.2825 49.0759 15.8385 49.5177 15.7832L55.1493 15.0792C55.589 15.0236 55.9898 15.379 55.9898 15.8214V21.4528C55.9898 21.8652 55.6543 22.2008 55.2419 22.2008C54.8294 22.2008 54.4939 21.8653 54.4939 21.4528V19.7456C54.4939 19.4759 54.3195 19.2237 54.0673 19.1284C53.8067 19.0299 53.4988 19.1126 53.3226 19.3283C50.8578 22.3485 48.0513 25.0814 44.9808 27.4512C44.6923 27.6739 44.6388 28.0883 44.8615 28.3769C45.0843 28.6655 45.4989 28.7188 45.7873 28.4961C48.4618 26.4319 50.941 24.0993 53.1762 21.546C53.225 22.6431 54.1329 23.5208 55.2419 23.5208C56.3821 23.5208 57.3097 22.5931 57.3097 21.453V15.8215C57.3097 15.2287 57.0548 14.6636 56.6104 14.2713Z" fill="white"/>
</svg>
