<svg width="582" height="336" viewBox="0 0 582 336" fill="none" xmlns="http://www.w3.org/2000/svg">
<g clip-path="url(#clip0)">
<path opacity="0.5" d="M144.426 220.05C109.238 207.872 69.0042 197.563 36.128 215.064C31.9612 217.282 27.8555 220.075 25.6105 224.23C19.6807 235.162 29.1061 249.339 24.5124 260.894C19.9186 272.449 2.62941 278.267 4.04476 290.61C4.41689 293.837 6.16167 296.757 8.21758 299.275C21.096 315.034 44.7054 316.629 64.6606 312.718C84.6158 308.808 104.132 300.699 124.447 301.719C143.969 302.728 161.929 312.107 179.816 320.002C209.971 333.348 245.19 342.923 275.321 329.51C289.127 323.363 300.541 312.896 313.755 305.587C331.563 295.829 352.032 292.067 372.138 294.857C385.56 296.751 398.371 301.518 411.506 304.805C441.338 312.266 472.475 312.022 503.216 311.729C508.939 311.674 514.753 311.606 520.237 309.969C528.357 307.524 535.056 301.896 541.504 296.391C549.978 289.162 558.903 281.218 561.636 270.408C564.863 257.576 558.183 243.937 548.276 235.217C538.368 226.497 525.703 221.731 513.344 217.136C510.293 216.011 507.035 214.869 503.912 215.718C501.862 216.28 500.136 217.649 498.604 219.122C489.832 227.579 482.419 241.884 470.456 239.586C466.186 238.767 462.69 235.792 459.31 233.042C441.265 218.376 416.99 207.053 395.211 215.156C379.282 221.083 368.039 236.305 351.897 241.676C340.415 245.501 327.939 243.845 315.86 244.591C298.29 245.666 281.19 251.887 263.596 251.508C218.732 250.543 181.353 207.573 136.672 211.667C133.171 211.984 129.352 212.791 127.204 215.565" fill="#1BAB8E"/>
<path d="M87.8491 179.176C87.8491 179.176 50.5682 201.719 119.316 236.439C119.316 236.439 134.464 208.269 117.718 185.299C114.468 180.824 109.692 177.698 104.296 176.513C98.8987 175.328 93.2554 176.167 88.4348 178.871L87.8491 179.176Z" fill="#1BAB8E"/>
<path d="M88.2944 178.706C88.2944 178.706 120.213 203.148 119.322 236.421" stroke="#535461" stroke-miterlimit="10"/>
<path d="M559.519 160.398C567.072 188.061 534.854 266.87 534.854 266.87C534.854 266.87 467.064 215.461 459.505 187.798C457.528 181.166 456.894 174.204 457.642 167.323C458.389 160.442 460.501 153.779 463.855 147.727C467.21 141.675 471.738 136.356 477.173 132.082C482.609 127.808 488.843 124.665 495.509 122.838C502.174 121.012 509.137 120.538 515.988 121.445C522.839 122.352 529.44 124.622 535.403 128.12C541.366 131.619 546.57 136.276 550.711 141.818C554.851 147.36 557.844 153.675 559.513 160.392L559.519 160.398Z" fill="#1BAB8E"/>
<path opacity="0.1" d="M559.519 160.398C567.072 188.061 534.854 266.87 534.854 266.87C534.854 266.87 467.064 215.461 459.505 187.798C457.528 181.166 456.894 174.204 457.642 167.323C458.389 160.442 460.501 153.779 463.855 147.727C467.21 141.675 471.738 136.356 477.173 132.082C482.609 127.808 488.843 124.665 495.509 122.838C502.174 121.012 509.137 120.538 515.988 121.445C522.839 122.352 529.44 124.622 535.403 128.12C541.366 131.619 546.57 136.276 550.711 141.818C554.851 147.36 557.844 153.675 559.513 160.392L559.519 160.398Z" fill="black"/>
<path d="M496.109 124.168C496.109 124.168 538.307 187.976 535.153 267.023" stroke="#535461" stroke-miterlimit="10"/>
<path d="M570.287 210.958C570.287 210.958 532.024 190.108 536.868 267.072C536.868 267.072 568.786 265.929 580.115 239.849C582.33 234.777 582.61 229.067 580.902 223.801C579.194 218.536 575.617 214.081 570.848 211.282L570.287 210.958Z" fill="#1BAB8E"/>
<path d="M570.915 211.092C570.915 211.092 565.974 251.044 536.868 267.072" stroke="#535461" stroke-miterlimit="10"/>
<path d="M10.1026 202.379C10.1026 202.379 -27.1966 224.915 41.5574 259.617C41.5574 259.617 56.7053 231.447 39.9591 208.477C36.7093 204.001 31.9337 200.875 26.5368 199.69C21.14 198.506 15.4967 199.345 10.6761 202.049L10.1026 202.379Z" fill="#1BAB8E"/>
<path d="M10.5297 201.908C10.5297 201.908 42.4482 226.351 41.5575 259.623" stroke="#535461" stroke-miterlimit="10"/>
<path d="M475.501 231.716H436.305C437.207 229.899 437.674 227.897 437.671 225.868V47.0947C437.671 43.6087 436.289 40.2655 433.828 37.8005C431.367 35.3355 428.029 33.9507 424.549 33.9507H121.146C117.666 33.9507 114.328 35.3355 111.867 37.8005C109.406 40.2655 108.024 43.6087 108.024 47.0947V225.874C108.021 227.903 108.488 229.905 109.39 231.722H68.8089C68.3515 231.722 67.8987 231.812 67.4763 231.988C67.054 232.164 66.6705 232.422 66.3479 232.747C66.0253 233.071 65.77 233.457 65.5967 233.881C65.4233 234.305 65.3353 234.759 65.3377 235.217V238.022C65.3377 243.179 67.3829 248.124 71.0234 251.771C74.6639 255.417 79.6015 257.466 84.7499 257.466H459.56C464.709 257.466 469.646 255.417 473.287 251.771C476.927 248.124 478.973 243.179 478.973 238.022V235.217C478.976 234.758 478.888 234.304 478.715 233.879C478.542 233.454 478.287 233.068 477.965 232.743C477.642 232.417 477.258 232.159 476.835 231.983C476.413 231.806 475.959 231.716 475.501 231.716ZM233.983 242.837L230.604 239.018H314.048L310.327 242.843L233.983 242.837Z" fill="url(#paint0_linear)"/>
<path d="M419.736 36.4806H125.929C118.092 36.4806 111.739 42.8441 111.739 50.6939V222.69C111.739 230.54 118.092 236.904 125.929 236.904H419.736C427.572 236.904 433.926 230.54 433.926 222.69V50.6939C433.926 42.8441 427.572 36.4806 419.736 36.4806Z" fill="#535461"/>
<path d="M426.464 65.6956H118.523V229.43H426.464V65.6956Z" fill="white"/>
<path d="M272.497 54.1464C273.996 54.1464 275.212 52.929 275.212 51.4272C275.212 49.9254 273.996 48.7079 272.497 48.7079C270.997 48.7079 269.782 49.9254 269.782 51.4272C269.782 52.929 270.997 54.1464 272.497 54.1464Z" fill="white"/>
<path d="M320.039 229.766L309.46 240.637H234.874L225.314 229.766H73.4149C72.5153 229.766 71.6525 230.124 71.0164 230.762C70.3803 231.399 70.0229 232.263 70.0229 233.164V235.901C70.0229 240.942 72.0219 245.775 75.58 249.339C79.1381 252.903 83.964 254.906 88.9959 254.906H455.314C457.806 254.906 460.273 254.414 462.575 253.459C464.877 252.504 466.968 251.104 468.73 249.339C470.492 247.575 471.889 245.48 472.843 243.174C473.796 240.868 474.287 238.397 474.287 235.901V233.164C474.287 232.263 473.93 231.399 473.294 230.762C472.658 230.124 471.795 229.766 470.895 229.766H320.039Z" fill="#535461"/>
<path d="M157.866 75.8881V215.162H387.799" stroke="#535461" stroke-width="2" stroke-miterlimit="10"/>
<path opacity="0.5" d="M201.949 173.041H178.212V209.73H201.949V173.041Z" fill="#1BAB8E"/>
<path opacity="0.7" d="M242.646 140.429H218.909V209.73H242.646V140.429Z" fill="#1BAB8E"/>
<path opacity="0.5" d="M283.344 160.129H259.606V209.723H283.344V160.129Z" fill="#1BAB8E"/>
<path opacity="0.8" d="M324.041 129.558H300.303V209.73H324.041V129.558Z" fill="#1BAB8E"/>
<path d="M364.738 101.021H341.001V209.723H364.738V101.021Z" fill="#1BAB8E"/>
<path d="M189.742 150.621L231.116 113.255L271.813 148.58L311.834 105.781L352.531 88.7938" stroke="#535461" stroke-width="2" stroke-miterlimit="10"/>
<path d="M189.742 155.375C192.363 155.375 194.488 153.247 194.488 150.621C194.488 147.996 192.363 145.867 189.742 145.867C187.12 145.867 184.995 147.996 184.995 150.621C184.995 153.247 187.12 155.375 189.742 155.375Z" fill="#1BAB8E"/>
<path d="M271.136 152.656C273.758 152.656 275.883 150.528 275.883 147.902C275.883 145.276 273.758 143.148 271.136 143.148C268.515 143.148 266.39 145.276 266.39 147.902C266.39 150.528 268.515 152.656 271.136 152.656Z" fill="#1BAB8E"/>
<path d="M312.511 110.535C315.132 110.535 317.257 108.407 317.257 105.781C317.257 103.156 315.132 101.027 312.511 101.027C309.89 101.027 307.765 103.156 307.765 105.781C307.765 108.407 309.89 110.535 312.511 110.535Z" fill="#1BAB8E"/>
<path d="M231.116 117.324C233.737 117.324 235.862 115.196 235.862 112.57C235.862 109.945 233.737 107.816 231.116 107.816C228.495 107.816 226.37 109.945 226.37 112.57C226.37 115.196 228.495 117.324 231.116 117.324Z" fill="#1BAB8E"/>
<path d="M352.531 93.5479C355.152 93.5479 357.277 91.4194 357.277 88.7938C357.277 86.1682 355.152 84.0397 352.531 84.0397C349.91 84.0397 347.785 86.1682 347.785 88.7938C347.785 91.4194 349.91 93.5479 352.531 93.5479Z" fill="#1BAB8E"/>
<path d="M529.114 235.718C526.612 234.893 522.903 233.94 519.963 234.276C517.162 233.256 510.58 230.61 506.084 226.626C506.213 222.708 506.114 218.787 505.785 214.881C503.485 188.685 508.658 171.416 508.658 171.416C508.658 171.416 512.721 158.241 512.276 147.309C512.538 147.804 512.685 148.098 512.685 148.098C513.038 138.669 516.247 128.91 518.651 122.83C518.743 122.804 518.832 122.771 518.919 122.732L521.604 116.353C521.818 115.981 521.988 115.585 522.11 115.173L522.543 114.165L522.415 114.11C522.458 113.945 522.501 113.768 522.543 113.591C524.258 106.325 525.594 89.0932 525.594 89.0932C530.193 70.9568 519.273 59.7621 519.273 59.7621L500.74 43.7889C500.832 43.9968 500.893 44.2171 500.923 44.4427L500.77 44.3083C500.508 43.5567 500.221 42.6584 499.94 41.6318C500.594 41.1616 501.206 40.6362 501.771 40.0614C503.878 38.068 505.327 35.4777 505.925 32.6369C506.285 30.4154 506.377 28.1587 506.2 25.9152L505.895 18.2097C505.881 16.7017 505.728 15.1982 505.437 13.7184C504.04 7.60774 497.787 3.33029 491.509 3.0492C489.512 3.03755 487.516 3.14365 485.531 3.36695C483.907 3.50052 482.278 3.53521 480.65 3.47083C480.465 3.48067 480.281 3.43147 480.126 3.33029C479.984 3.18914 479.903 2.99849 479.9 2.79866C479.868 2.44102 479.909 2.0806 480.02 1.73922C480.131 1.39785 480.31 1.08263 480.547 0.812697C480.792 0.596971 481.078 0.432818 481.388 0.32996L480.943 0.43384C481.163 0.260415 481.41 0.126067 481.675 0.0366516C480.048 0.323228 478.483 0.891891 477.051 1.71708C476.656 1.97676 476.294 2.28238 475.971 2.62756C475.118 3.3773 474.564 4.41003 474.409 5.53623C473.645 4.88984 473.075 4.0437 472.762 3.09197C472.665 2.70281 472.665 2.29568 472.762 1.90651C472.652 2.04094 472.547 2.17945 472.445 2.32203C472.445 2.27925 472.445 2.23648 472.445 2.19371C471.266 3.64525 470.432 5.34606 470.005 7.16778C469.84 6.97051 469.717 6.7425 469.642 6.49702C469.566 6.25154 469.54 5.99349 469.565 5.73789C469.474 6.02509 469.388 6.31228 469.309 6.59948C469.281 6.40902 469.281 6.21554 469.309 6.02508C468.591 8.22807 468.267 10.5408 468.351 12.8568C468.351 15.1666 469.376 18.7658 471.847 19.5785C471.975 19.6213 472.103 19.6518 472.237 19.6824C470.848 21.8444 470.016 24.3181 469.816 26.8815C469.615 29.445 470.053 32.0181 471.09 34.3703C472.127 36.7225 473.731 38.7802 475.757 40.359C477.783 41.9377 480.169 42.9882 482.7 43.4161C482.741 43.6972 482.779 43.9926 482.816 44.3022H482.914C482.981 44.9132 483.036 45.5854 483.072 46.2698C482.449 46.8817 481.766 47.4303 481.035 47.9075C478.96 49.1356 476.647 49.9025 474.251 50.1562C471.389 50.381 468.609 51.2143 466.094 52.6004C463.135 54.2564 459.871 56.6701 458.847 59.6032C457.138 64.4917 447.731 72.0995 441.423 73.0466L439.178 72.9183L439.013 72.8695V72.9122L438.464 72.8817H438.434H438.287V72.9122L437.72 72.8817C437.72 72.8817 437.665 73.1444 437.586 73.6088C434.414 72.515 427.672 69.4842 418.9 61.5098C409.139 52.631 395.931 54.3786 390.837 55.4969C390.664 55.5352 390.506 55.6255 390.385 55.7558C390.265 55.8861 390.186 56.0502 390.161 56.2261C390.136 56.4021 390.165 56.5816 390.244 56.7406C390.324 56.8996 390.449 57.0307 390.605 57.1162C392.661 58.2467 395.845 59.8904 397.316 60.0738C397.316 60.0738 394.265 63.2696 397.511 64.9623C397.9 65.1508 398.334 65.2283 398.764 65.1863C399.195 65.1443 399.605 64.9843 399.951 64.7239C401.525 63.569 405.899 66.1844 412.238 67.5471C412.238 67.5471 430.125 86.0868 439.007 88.9343C439.212 89.3392 439.438 89.7329 439.684 90.1137L440.234 90.0709V90.1137H440.465L440.532 90.7248C440.532 90.7248 454.344 89.9976 458.834 84.9746C459.152 84.6895 459.444 84.3767 459.707 84.0397L454.906 144.535H454.948L454.906 145.11H458.438C458.74 152.55 458.42 160.002 457.48 167.389V206.827C457.48 206.827 457.297 210.298 464.496 215.382C472.044 220.645 479.317 226.293 486.287 232.302L487.16 233.06C485.836 245.129 483.066 267.622 480.754 268.459L482.181 268.71C479.741 271.808 472.811 280.32 470.7 280.546C468.113 280.833 466.387 284.866 470.7 285.728C479.312 287.221 488.167 286.347 496.323 283.198C497.136 282.877 497.818 282.291 498.261 281.536C498.703 280.78 498.88 279.898 498.763 279.03L497.927 272.675C498.085 272.763 498.213 272.898 498.293 273.06C498.867 274.79 498.293 270.757 498.293 270.757C500.657 263.148 502.513 255.391 503.851 247.536L512.392 254.93C512.392 254.93 512.563 254.716 512.862 254.319C514.954 259.073 518.688 268.801 517.852 275.926C516.705 285.703 527.613 277.075 526.472 271.319C525.545 266.663 529.693 246.925 531.31 239.543C531.484 238.746 531.356 237.913 530.949 237.206C530.543 236.499 529.889 235.968 529.114 235.718Z" fill="url(#paint1_linear)"/>
<path d="M439.855 76.0287C439.855 76.0287 431.717 74.6232 419.65 63.6607C410.103 54.9897 397.224 56.6946 392.258 57.7884C392.089 57.825 391.935 57.9127 391.817 58.0395C391.699 58.1664 391.623 58.3264 391.598 58.498C391.573 58.6697 391.602 58.8448 391.679 58.9997C391.757 59.1547 391.88 59.2822 392.032 59.3649C394.04 60.4649 397.151 62.072 398.609 62.2553C398.609 62.2553 395.601 65.3717 398.798 67.0399C399.181 67.2282 399.608 67.3062 400.033 67.2652C400.457 67.2242 400.862 67.0658 401.202 66.8077C402.739 65.6833 407.01 68.2376 413.202 69.5636C413.202 69.5636 437.336 94.5806 442.948 90.3398L439.855 76.0287Z" fill="#FEC3BE"/>
<path d="M481.407 42.0168C481.407 42.0168 483.652 51.5738 481.407 58.32L491.509 59.7254L500.49 55.228V49.3251C500.49 49.3251 496.28 40.3303 497.403 29.9299L481.407 42.0168Z" fill="#FEC3BE"/>
<path d="M510.013 249.168C510.013 249.168 517.333 263.503 516.186 273.06C515.039 282.617 525.728 274.185 524.605 268.563C523.696 264.017 527.747 244.731 529.327 237.558C529.498 236.782 529.376 235.971 528.984 235.281C528.591 234.591 527.957 234.072 527.204 233.824C523.83 232.712 518.181 231.349 515.345 233.433C511.153 236.519 510.013 249.168 510.013 249.168Z" fill="#8B416F"/>
<path d="M482.249 264.909C482.249 264.909 472.707 277.277 470.182 277.558C467.656 277.839 465.972 281.774 470.182 282.617C478.586 284.083 487.231 283.238 495.194 280.173C495.991 279.862 496.661 279.291 497.095 278.553C497.53 277.815 497.705 276.953 497.592 276.103L495.981 264.065L482.249 264.909Z" fill="#8B416F"/>
<path d="M466.533 133.646L457.382 134.868C458.638 145.574 458.602 156.392 457.273 167.09V205.587C457.273 205.587 457.096 208.978 464.124 213.909C471.493 219.041 478.596 224.548 485.403 230.408L510.867 252.504C510.867 252.504 520.969 240.136 519.566 232.828C519.566 232.828 502.728 227.487 500.483 218.773C499.196 213.787 492.668 209.607 487.324 206.98C483.965 205.346 481.265 202.61 479.672 199.226C478.08 195.842 477.691 192.015 478.57 188.379C478.882 187.116 479.364 185.901 480.004 184.768C484.494 176.897 490.948 159.188 490.948 159.188L478.6 135.614L466.533 133.646Z" fill="#4D4981"/>
<path opacity="0.05" d="M466.533 133.646L457.382 134.868C458.638 145.574 458.602 156.392 457.273 167.09V205.587C457.273 205.587 457.096 208.978 464.124 213.909C471.493 219.041 478.596 224.548 485.403 230.408L510.867 252.504C510.867 252.504 520.969 240.136 519.566 232.828C519.566 232.828 502.728 227.487 500.483 218.773C499.196 213.787 492.668 209.607 487.324 206.98C483.965 205.346 481.265 202.61 479.672 199.226C478.08 195.842 477.691 192.015 478.57 188.379C478.882 187.116 479.364 185.901 480.004 184.768C484.494 176.897 490.948 159.188 490.948 159.188L478.6 135.614L466.533 133.646Z" fill="black"/>
<path d="M480.004 265.77C480.004 265.77 496.561 268.581 497.122 270.268C497.683 271.954 497.122 268.019 497.122 268.019C497.122 268.019 506.663 239.067 504.443 213.494C502.222 187.921 507.249 171.049 507.249 171.049C507.249 171.049 513.142 151.935 509.775 140.973C506.407 130.01 471.048 134.789 471.048 134.789C471.048 134.789 483.396 163.741 483.115 177.514C483.115 177.514 484.518 219.116 487.044 223.894C487.019 223.87 483.09 264.628 480.004 265.77Z" fill="#4D4981"/>
<path d="M481.95 49.3251C481.95 49.3251 483.634 59.7132 500.471 55.228L489.271 140.673C489.271 140.673 456.718 141.798 456.998 137.862L463.709 86.1479L481.95 49.3251Z" fill="white"/>
<path opacity="0.1" d="M482.389 48.763C480.196 50.9251 477.34 52.2835 474.281 52.6188C471.487 52.8333 468.771 53.6415 466.314 54.9897C463.428 56.609 460.213 58.9616 459.237 61.8275C457.273 67.4493 444.925 76.7253 439.312 74.7577L441.277 91.6231C441.277 91.6231 457.273 90.7798 460.079 84.5958L455.314 144.78H459.524C459.524 144.78 461.769 128.476 463.453 125.103C465.136 121.73 468.504 103.178 468.785 98.6808C469.065 94.1834 473.275 68.3232 476.923 63.8502L482.413 50.4984L482.389 48.763Z" fill="black"/>
<path opacity="0.1" d="M482.389 49.6062C479.881 51.5712 476.882 52.8078 473.72 53.181C470.927 53.4001 468.213 54.2125 465.759 55.5641C462.873 57.1834 459.658 59.536 458.682 62.4019C456.718 68.0237 444.37 77.2997 438.757 75.3321L440.722 92.1974C440.722 92.1974 456.718 91.3542 459.524 85.1702L454.753 145.317H458.963C458.963 145.317 461.208 129.014 462.891 125.641C464.575 122.268 467.943 103.716 468.223 99.2186C468.504 94.7211 472.713 68.8609 476.362 64.3879L482.389 51.2867V49.6062Z" fill="black"/>
<path d="M482.389 49.044C479.881 51.009 476.882 52.2456 473.72 52.6188C470.926 52.8332 468.21 53.6415 465.752 54.9897C462.867 56.609 459.652 58.9616 458.676 61.8275C456.711 67.4493 444.364 76.7253 438.751 74.7576L440.715 91.623C440.715 91.623 456.711 90.7798 459.518 84.5958L454.753 144.78H458.962C458.962 144.78 461.208 128.476 462.891 125.103C464.575 121.73 467.943 103.178 468.223 98.6808C468.504 94.1834 472.713 68.3231 476.361 63.8501L482.395 50.7795L482.389 49.044Z" fill="#FD6F8D"/>
<path opacity="0.1" d="M496.701 38.2221C496.335 35.5579 497.067 33.8958 497.403 30.7732L481.407 42.8601C481.407 42.8601 481.791 44.4916 482.084 46.8809C482.891 47.0115 483.707 47.0769 484.524 47.0764C490.076 47.0764 494.072 42.7318 496.701 38.2221Z" fill="black"/>
<path d="M484.494 46.2392C492.863 46.2392 499.648 39.4434 499.648 31.0604C499.648 22.6774 492.863 15.8816 484.494 15.8816C476.124 15.8816 469.34 22.6774 469.34 31.0604C469.34 39.4434 476.124 46.2392 484.494 46.2392Z" fill="#FEC3BE"/>
<path opacity="0.1" d="M467.955 16.181C467.858 13.6212 468.272 11.0678 469.175 8.67101C468.924 9.04811 468.818 9.50336 468.877 9.95265C468.935 10.4019 469.154 10.8149 469.492 11.1153C469.981 8.50303 471.319 6.12645 473.299 4.35689C472.219 4.5341 471.664 5.87233 471.932 6.93558C472.297 7.97411 472.946 8.88891 473.805 9.57539C473.714 7.96829 474.775 6.46507 476.117 5.58514C477.516 4.78058 479.043 4.22639 480.632 3.94748C480.087 4.14113 479.622 4.50992 479.308 4.99629C478.995 5.48267 478.851 6.05928 478.899 6.63616C478.904 6.83216 478.985 7.01855 479.125 7.15557C479.277 7.25326 479.457 7.3003 479.637 7.29C481.218 7.35102 482.801 7.31633 484.378 7.18612C486.316 6.96761 488.265 6.86355 490.216 6.87448C496.317 7.13113 502.448 11.3047 503.814 17.2626C504.097 18.7082 504.247 20.1769 504.26 21.65L504.559 29.1722C504.732 31.3668 504.642 33.5743 504.29 35.7473C503.868 37.7534 503.008 39.6413 501.773 41.2764C500.538 42.9115 498.959 44.2535 497.146 45.2066C494.944 42.0107 494.749 37.9043 493.986 34.0974C493.866 33.2189 493.54 32.3813 493.034 31.6531C492.774 31.2931 492.407 31.0232 491.987 30.8809C491.566 30.7386 491.111 30.7308 490.686 30.8588C489.862 31.1887 489.508 32.4475 490.192 33.0097C489.582 33.7308 488.441 33.193 487.751 32.5514C485.826 30.7221 484.501 28.3505 483.951 25.7503C483.676 24.4426 483.402 22.8294 482.12 22.3833C481.68 22.262 481.219 22.2308 480.766 22.2916C478.094 22.475 473.915 23.581 471.328 22.7316C468.955 21.9556 467.955 18.4358 467.955 16.181Z" fill="black"/>
<path d="M468.235 15.8999C468.138 13.3401 468.553 10.7867 469.456 8.38991C469.205 8.76701 469.099 9.22226 469.157 9.67155C469.215 10.1208 469.434 10.5338 469.773 10.8342C470.261 8.22193 471.6 5.84536 473.58 4.07579C472.5 4.253 471.945 5.59124 472.213 6.65449C472.578 7.69302 473.227 8.60781 474.086 9.29428C473.994 7.68718 475.056 6.18396 476.398 5.30403C477.796 4.49947 479.324 3.9453 480.913 3.66638C480.368 3.86004 479.903 4.22882 479.589 4.71519C479.276 5.20157 479.132 5.77818 479.18 6.35506C479.185 6.55106 479.266 6.73745 479.406 6.87447C479.558 6.97216 479.737 7.0192 479.918 7.0089C481.499 7.06992 483.082 7.03523 484.658 6.90502C486.597 6.6865 488.546 6.58245 490.497 6.59338C496.597 6.85002 502.728 11.0236 504.095 16.9815C504.378 18.4271 504.527 19.8958 504.54 21.3689L504.839 28.8911C505.013 31.0857 504.923 33.2932 504.571 35.4662C504.148 37.4723 503.289 39.3602 502.054 40.9953C500.819 42.6304 499.239 43.9724 497.427 44.9255C495.225 41.7296 495.029 37.6232 494.267 33.8163C494.146 32.9378 493.82 32.1002 493.315 31.3721C493.054 31.012 492.688 30.7421 492.267 30.5998C491.846 30.4575 491.392 30.4497 490.966 30.5777C490.143 30.9076 489.789 32.1664 490.472 32.7286C489.862 33.4497 488.721 32.9119 488.032 32.2703C486.107 30.441 484.781 28.0694 484.231 25.4692C483.957 24.1615 483.682 22.5483 482.401 22.1022C481.96 21.9809 481.5 21.9497 481.047 22.0105C478.375 22.1939 474.196 23.2999 471.609 22.4505C469.236 21.6683 468.235 18.1547 468.235 15.8999Z" fill="#784F69"/>
<path opacity="0.1" d="M438.025 74.7638C438.025 74.7638 435.78 85.1518 439.99 91.6291L442.375 91.4336L441.076 74.9349L438.025 74.7638Z" fill="black"/>
<path d="M438.635 74.7638C438.635 74.7638 436.39 85.1518 440.6 91.6291L442.985 91.4336L441.685 74.9349L438.635 74.7638Z" fill="#FD6F8D"/>
<path opacity="0.1" d="M498.946 46.3981L517.047 61.9986C517.047 61.9986 527.711 72.9611 523.22 90.6698C523.22 90.6698 521.256 116.53 519.011 117.654C519.011 117.654 511.153 133.395 510.592 148.293C510.592 148.293 500.069 127.071 495.298 140.001C490.527 152.931 479.436 154.758 479.436 154.758L485.61 78.2774C485.61 78.2774 501.191 51.1522 498.946 46.3981Z" fill="black"/>
<path d="M499.507 46.3981L517.608 61.9986C517.608 61.9986 528.272 72.9611 523.782 90.6698C523.782 90.6698 521.817 116.53 519.572 117.654C519.572 117.654 511.715 133.395 511.153 148.293C511.153 148.293 500.069 125.947 495.292 138.877C490.515 151.807 479.998 154.764 479.998 154.764L486.171 78.314C486.171 78.314 501.752 51.1522 499.507 46.3981Z" fill="#FD6F8D"/>
<path d="M507.786 112.289C507.786 112.289 512.276 109.197 519.572 117.63L501.612 150.236L495.578 141.113C495.578 141.113 508.347 115.943 507.786 112.289Z" fill="#FEC3BE"/>
<path opacity="0.1" d="M503.436 114.116C503.436 114.116 513.368 125.287 517.242 123.496L520.829 115.131L507.365 109.338L503.436 114.116Z" fill="black"/>
<path d="M503.436 113.554C503.436 113.554 513.368 124.724 517.242 122.934L520.829 114.569L507.365 108.776L503.436 113.554Z" fill="#FD6F8D"/>
<path opacity="0.1" d="M496.189 138.981C496.189 138.981 500.917 148.684 503.436 149.246L499.776 153.463L494.444 143.344L496.189 138.981Z" fill="black"/>
<path d="M495.908 139.28C495.908 139.28 500.636 148.984 503.155 149.546L499.495 153.762L494.151 143.625L495.908 139.28Z" fill="#4D4981"/>
<path opacity="0.1" d="M504.839 79.2612C504.839 79.2612 505.401 99.4996 503.156 107.089L504.839 79.2612Z" fill="black"/>
<path opacity="0.1" d="M459.377 83.1964C459.377 83.1964 462.745 82.0721 462.745 79.2612L459.377 83.1964Z" fill="black"/>
<path d="M50.4461 86.5818C50.4461 86.5818 34.4502 119.726 44.9555 158.95C55.4608 198.174 52.1237 245.11 41.649 256.72" stroke="#535461" stroke-width="2" stroke-miterlimit="10"/>
<path d="M50.4462 91.0059C52.8822 91.0059 54.8569 89.0278 54.8569 86.5879C54.8569 84.1479 52.8822 82.1699 50.4462 82.1699C48.0102 82.1699 46.0354 84.1479 46.0354 86.5879C46.0354 89.0278 48.0102 91.0059 50.4462 91.0059Z" fill="#1BAB8E"/>
<path d="M43.7964 107.902C43.7964 107.902 60.3779 110.896 64.7887 104.846" stroke="#535461" stroke-width="2" stroke-miterlimit="10"/>
<path d="M42.2225 117.526C42.2225 117.526 32.248 106.472 32.797 99.8418" stroke="#535461" stroke-width="2" stroke-miterlimit="10"/>
<path d="M41.3745 137.777C41.3745 137.777 50.4461 140.172 58.7247 122.5" stroke="#535461" stroke-width="2" stroke-miterlimit="10"/>
<path d="M43.7964 152.503C43.7964 152.503 21.2241 137.954 23.9755 128.568" stroke="#535461" stroke-width="2" stroke-miterlimit="10"/>
<path d="M47.3226 169.155C47.3226 169.155 63.1355 155.1 61.4822 141.272" stroke="#535461" stroke-width="2" stroke-miterlimit="10"/>
<path d="M49.0429 178.944C49.0429 178.944 28.9109 173.31 29.5209 164.474" stroke="#535461" stroke-width="2" stroke-miterlimit="10"/>
<path d="M50.446 190.609C50.446 190.609 63.1293 178.84 64.7825 171.666" stroke="#535461" stroke-width="2" stroke-miterlimit="10"/>
<path d="M51.3307 210.622C51.3307 210.622 38.3181 195.406 37.7629 187.676" stroke="#535461" stroke-width="2" stroke-miterlimit="10"/>
<path d="M51.3307 223.216C51.3307 223.216 65.8929 207.01 66.991 199.28" stroke="#535461" stroke-width="2" stroke-miterlimit="10"/>
<path d="M32.797 105.366C35.233 105.366 37.2077 103.388 37.2077 100.948C37.2077 98.5079 35.233 96.5299 32.797 96.5299C30.361 96.5299 28.3862 98.5079 28.3862 100.948C28.3862 103.388 30.361 105.366 32.797 105.366Z" fill="#1BAB8E"/>
<path d="M27.8371 168.892C30.2731 168.892 32.2479 166.914 32.2479 164.474C32.2479 162.034 30.2731 160.056 27.8371 160.056C25.4012 160.056 23.4264 162.034 23.4264 164.474C23.4264 166.914 25.4012 168.892 27.8371 168.892Z" fill="#1BAB8E"/>
<path d="M23.9755 132.986C26.4114 132.986 28.3862 131.008 28.3862 128.568C28.3862 126.128 26.4114 124.15 23.9755 124.15C21.5395 124.15 19.5647 126.128 19.5647 128.568C19.5647 131.008 21.5395 132.986 23.9755 132.986Z" fill="#1BAB8E"/>
<path d="M64.7887 109.234C67.2247 109.234 69.1994 107.256 69.1994 104.816C69.1994 102.376 67.2247 100.398 64.7887 100.398C62.3527 100.398 60.3779 102.376 60.3779 104.816C60.3779 107.256 62.3527 109.234 64.7887 109.234Z" fill="#1BAB8E"/>
<path d="M64.7887 177.178C67.2247 177.178 69.1994 175.2 69.1994 172.76C69.1994 170.32 67.2247 168.342 64.7887 168.342C62.3527 168.342 60.3779 170.32 60.3779 172.76C60.3779 175.2 62.3527 177.178 64.7887 177.178Z" fill="#1BAB8E"/>
<path d="M57.6205 126.912C60.0565 126.912 62.0312 124.934 62.0312 122.494C62.0312 120.054 60.0565 118.076 57.6205 118.076C55.1845 118.076 53.2097 120.054 53.2097 122.494C53.2097 124.934 55.1845 126.912 57.6205 126.912Z" fill="#1BAB8E"/>
<path d="M66.442 206.46C68.878 206.46 70.8528 204.482 70.8528 202.042C70.8528 199.602 68.878 197.624 66.442 197.624C64.006 197.624 62.0312 199.602 62.0312 202.042C62.0312 204.482 64.006 206.46 66.442 206.46Z" fill="#1BAB8E"/>
<path d="M36.6587 194.856C39.0947 194.856 41.0694 192.878 41.0694 190.438C41.0694 187.998 39.0947 186.02 36.6587 186.02C34.2227 186.02 32.2479 187.998 32.2479 190.438C32.2479 192.878 34.2227 194.856 36.6587 194.856Z" fill="#1BAB8E"/>
<path d="M62.0312 145.69C64.4672 145.69 66.442 143.712 66.442 141.272C66.442 138.832 64.4672 136.854 62.0312 136.854C59.5952 136.854 57.6205 138.832 57.6205 141.272C57.6205 143.712 59.5952 145.69 62.0312 145.69Z" fill="#1BAB8E"/>
</g>
<defs>
<linearGradient id="paint0_linear" x1="272.155" y1="257.441" x2="272.155" y2="33.9446" gradientUnits="userSpaceOnUse">
<stop stop-color="#808080" stop-opacity="0.25"/>
<stop offset="0.54" stop-color="#808080" stop-opacity="0.12"/>
<stop offset="1" stop-color="#808080" stop-opacity="0.1"/>
</linearGradient>
<linearGradient id="paint1_linear" x1="124440" y1="184376" x2="124440" y2="50140.2" gradientUnits="userSpaceOnUse">
<stop stop-color="#808080" stop-opacity="0.25"/>
<stop offset="0.54" stop-color="#808080" stop-opacity="0.12"/>
<stop offset="1" stop-color="#808080" stop-opacity="0.1"/>
</linearGradient>
<clipPath id="clip0">
<rect width="582" height="336" fill="white"/>
</clipPath>
</defs>
</svg>
